<svg xmlns="http://www.w3.org/2000/svg" width="41.978" height="41.98" viewBox="0 0 41.978 41.98"><defs><style>.a{fill:none;stroke:#fff;}.b{fill:#fff;}</style></defs><g transform="translate(0.5 0.5)"><g transform="translate(0 0)"><path class="a" d="M40.978,20.489A20.473,20.473,0,0,1,22.844,40.844a20.706,20.706,0,0,1-6.75-.338A20.495,20.495,0,1,1,40.978,20.489Z" transform="translate(0.001 0.001)"/><path class="b" d="M375.014,232.5v-1.566a5.488,5.488,0,0,1,.9-3.572,2.884,2.884,0,0,1,2.48-1.03,10.035,10.035,0,0,1,2.313.268v-4.387a8.7,8.7,0,0,0-2.923-.473c-5.3,0-7.8,3.146-7.8,9.141v1.62H365.81v4.435h4.174v9.975h5.03v-9.975h4.164l1.53-4.435Z" transform="translate(-352.77 -213.835)"/></g></g></svg>