<svg xmlns="http://www.w3.org/2000/svg" width="42.659" height="38.695" viewBox="0 0 42.659 38.695">
  <g id="Group_19582" data-name="Group 19582" transform="translate(-1518.167 -483.65)">
    <path id="Path_4877" data-name="Path 4877" d="M4.913,22.976h0A2.413,2.413,0,0,1,2.5,20.564V10.913A2.413,2.413,0,0,1,4.913,8.5h0a2.413,2.413,0,0,1,2.413,2.413v9.651A2.413,2.413,0,0,1,4.913,22.976Z" transform="translate(1519.739 488.868)" fill="none" stroke="#299ec0" stroke-linecap="round" stroke-linejoin="round" stroke-width="1.7"/>
    <path id="Path_4878" data-name="Path 4878" d="M3.718,18.432a4.021,4.021,0,0,1,0-7.882" transform="translate(1518.52 490.115)" fill="none" stroke="#299ec0" stroke-linecap="round" stroke-linejoin="round" stroke-width="1.7"/>
    <path id="Path_4879" data-name="Path 4879" d="M20.913,8.5h0a2.413,2.413,0,0,1,2.413,2.413v9.651a2.413,2.413,0,0,1-2.413,2.413h0A2.413,2.413,0,0,1,18.5,20.564V10.913A2.413,2.413,0,0,1,20.913,8.5Z" transform="translate(1533.431 488.868)" fill="none" stroke="#299ec0" stroke-linecap="round" stroke-linejoin="round" stroke-width="1.7"/>
    <path id="Path_4880" data-name="Path 4880" d="M21.5,10.55a4.021,4.021,0,0,1,0,7.882" transform="translate(1535.256 490.115)" fill="none" stroke="#299ec0" stroke-linecap="round" stroke-linejoin="round" stroke-width="1.7"/>
    <path id="Path_4881" data-name="Path 4881" d="M14.934,24.717H10.108A1.608,1.608,0,0,1,8.5,23.108h0A1.608,1.608,0,0,1,10.108,21.5h4.825a1.608,1.608,0,0,1,1.608,1.608h0A1.608,1.608,0,0,1,14.934,24.717Z" transform="translate(1525.148 496.778)" fill="none" stroke="#299ec0" stroke-linecap="round" stroke-linejoin="round" stroke-width="1.7"/>
    <path id="Path_4882" data-name="Path 4882" d="M24.759,17.5c0,6.434-3.217,8.042-11.259,8.042" transform="translate(1530.388 494.344)" fill="none" stroke="#299ec0" stroke-linecap="round" stroke-linejoin="round" stroke-width="1.7"/>
    <path id="Path_4883" data-name="Path 4883" d="M4.5,13.368v-.8C4.5,5.9,10.787.5,18.542.5h0C26.3.5,32.583,5.9,32.583,12.564v.8" transform="translate(1520.956 484)" fill="none" stroke="#299ec0" stroke-linecap="round" stroke-linejoin="round" stroke-width="1.7"/>
  </g>
</svg>
