<svg xmlns="http://www.w3.org/2000/svg" width="41.979" height="41.979" viewBox="0 0 41.979 41.979"><defs><style>.a{fill:none;stroke:#fff;}.b{fill:#fff;}</style></defs><g transform="translate(0.5 0.5)"><rect class="a" width="40.979" height="40.979" rx="20.489"/><path class="b" d="M252.862,256.939H236.617a4.082,4.082,0,0,1-4.077-4.078V236.617a4.082,4.082,0,0,1,4.077-4.077h16.244a4.082,4.082,0,0,1,4.078,4.077v16.244A4.082,4.082,0,0,1,252.862,256.939Zm-16.244-23.064a2.745,2.745,0,0,0-2.742,2.742v16.244a2.745,2.745,0,0,0,2.743,2.743h16.244a2.745,2.745,0,0,0,2.743-2.743V236.617a2.745,2.745,0,0,0-2.743-2.742Z" transform="translate(-224.25 -224.25)"/><path class="b" d="M405.472,411.634A6.261,6.261,0,1,1,409.9,409.8,6.261,6.261,0,0,1,405.472,411.634Zm0-11.186a4.926,4.926,0,1,0,4.925,4.926A4.932,4.932,0,0,0,405.472,400.448Z" transform="translate(-384.983 -384.885)"/><ellipse class="b" cx="1.201" cy="1.201" rx="1.201" ry="1.201" transform="translate(26.688 11.03) rotate(-22.5)"/></g></svg>