<svg xmlns="http://www.w3.org/2000/svg" width="46" height="33.251" viewBox="0 0 46 33.251">
  <g id="b" transform="translate(0 -0.003)">
    <g id="c" transform="translate(0 0.002)">
      <g id="Group_19581" data-name="Group 19581">
        <path id="Path_6761" data-name="Path 6761" d="M22.99,33.254A170.119,170.119,0,0,1,2.6,32.016a1,1,0,0,1-.859-.759,62.545,62.545,0,0,1,0-29.282A1,1,0,0,1,2.6,1.216a172.145,172.145,0,0,1,40.807,0,1,1,0,0,1,.859.759,62.545,62.545,0,0,1,0,29.282,1,1,0,0,1-.859.759A170.622,170.622,0,0,1,23.01,33.254h0ZM3.535,30.118a169.341,169.341,0,0,0,38.949,0,60.333,60.333,0,0,0,0-26.985,168.227,168.227,0,0,0-38.949-.02,59.85,59.85,0,0,0,0,27Z" transform="translate(0 -0.002)" fill="#299ec0"/>
        <path id="Path_6762" data-name="Path 6762" d="M10.368,21.516A1.85,1.85,0,0,1,8.57,19.5V5.937a1.861,1.861,0,0,1,2.936-1.7L23.231,11.01a1.979,1.979,0,0,1,1.1,1.7,1.979,1.979,0,0,1-1.1,1.7L11.506,21.177a2.271,2.271,0,0,1-1.139.34h0Zm.22-15.5V19.4l11.585-6.671L10.587,6.017Z" transform="translate(8.548 3.905)" fill="#299ec0"/>
      </g>
    </g>
  </g>
</svg>
