<svg xmlns="http://www.w3.org/2000/svg" width="41.979" height="41.979" viewBox="0 0 41.979 41.979"><defs><style>.a{fill:none;stroke:#fff;}.b{fill:#fcfdfe;}</style></defs><g transform="translate(0.5 0.5)"><g transform="translate(0)"><rect class="a" width="40.979" height="40.979" rx="20.489"/><path class="b" d="M258.77,315.608a9.751,9.751,0,0,0,6.615-1.937,5.131,5.131,0,0,1-4.331-3.291,6.939,6.939,0,0,0,1.777-.174c-2.057-.9-3.389-2.257-3.444-4.6.648.057,1.141.478,1.919.423-1.9-1.851-2.47-3.862-1.279-6.315a13.814,13.814,0,0,0,7.107,4.534c.153.04.307.082.46.117a9.373,9.373,0,0,0,2.029.472c.761-.1,0-.968.194-2.1a4.642,4.642,0,0,1,7.361-3.066,2.073,2.073,0,0,0,2.328.229c.434-.192.871-.376,1.385-.6-.118,1.012-.889,1.561-1.508,2.314a3.437,3.437,0,0,0,1.918-.247,3.215,3.215,0,0,1-1.258,1.537,1.806,1.806,0,0,0-.735,1.512c-.316,10.175-11.877,18.047-19.783,11.782C258.757,315.594,259.5,316.2,258.77,315.608Z" transform="translate(-249.545 -288.106)"/></g></g></svg>